<?xml version="1.0" encoding="UTF-8"?>
<svg width="91px" height="95px" viewBox="0 0 91 95" version="1.1" xmlns="http://www.w3.org/2000/svg" xmlns:xlink="http://www.w3.org/1999/xlink">
    <title>DF317B95-2712-466E-9883-021B162D1781</title>
    <defs>
        <polygon id="path-1" points="2.3016429e-15 0 18 0 18 24 2.3016429e-15 24"></polygon>
        <polygon id="path-3" points="0 9.52660756e-15 57 9.52660756e-15 57 67 0 67"></polygon>
    </defs>
    <g id="Coding-Test" stroke="none" stroke-width="1" fill="none" fill-rule="evenodd">
        <g id="Landing-Page" transform="translate(-39.000000, -735.000000)">
            <g id="Group" transform="translate(39.993427, 735.406826)">
                <g id="Group-11-Copy" transform="translate(-0.000000, 0.000000)">
                    <g id="Group-3" transform="translate(11.006573, -0.406826)">
                        <mask id="mask-2" fill="white">
                            <use xlink:href="#path-1"></use>
                        </mask>
                        <g id="Clip-2"></g>
                        <path d="M9.00259142,2.65791458 C5.46271235,2.65791458 2.59141952,5.61706657 2.59141952,9.24149554 L2.59141952,14.7499889 C2.59141952,18.3797401 5.46271235,21.3388921 9.00259142,21.3388921 C12.5372876,21.3388921 15.4137633,18.3797401 15.4137633,14.7499889 L15.4137633,9.24149554 C15.4137633,5.61706657 12.5372876,2.65791458 9.00259142,2.65791458 M9.00259142,24 C4.03743162,24 2.3016429e-15,19.8486717 2.3016429e-15,14.7499889 L2.3016429e-15,9.24149554 C2.3016429e-15,4.14281279 4.03743162,-0.00319332949 9.00259142,-0.00319332949 C13.9625684,-0.00319332949 18,4.14281279 18,9.24149554 L18,14.7499889 C18,19.8486717 13.9625684,24 9.00259142,24" id="Fill-1" fill="#1A1A1A" mask="url(#mask-2)"></path>
                    </g>
                    <g id="Group-6" transform="translate(0.006573, 26.593174)">
                        <mask id="mask-4" fill="white">
                            <use xlink:href="#path-3"></use>
                        </mask>
                        <g id="Clip-5"></g>
                        <path d="M11.1389958,64.3184984 L28.8875651,64.3184984 L28.8875651,11.9970383 C28.8875651,11.6430801 29.0258519,11.2998479 29.2758317,11.0477868 C29.5258116,10.8010886 29.8662097,10.6562875 30.2172452,10.6562875 L45.0990244,10.6616505 C51.2900147,10.6616505 53.3909092,5.35764028 54.0610679,2.68150164 L15.5428961,2.68150164 C8.43708589,2.68150164 2.65563701,8.51108621 2.65563701,15.6760586 L2.65563701,31.6738974 C2.69818677,32.1404787 3.20346519,36.6561274 8.48495437,37.3104138 L8.48495437,16.8773713 C8.48495437,16.1426399 9.07533231,15.5366205 9.8093157,15.5366205 C10.5486178,15.5366205 11.1389958,16.1426399 11.1389958,16.8773713 L11.1389958,64.3184984 Z M30.2172452,67 L9.8093157,67 C9.07533231,67 8.48495437,66.4047066 8.48495437,65.6592492 L8.48495437,40.0026415 C2.19822707,39.3912591 0.177113383,34.4572961 0.00159561607,31.7650684 L-0.00372310415,15.6760586 C-0.00372310415,7.0308973 6.97443783,9.52660756e-15 15.5428961,9.52660756e-15 L55.6673214,9.52660756e-15 C56.0449506,9.52660756e-15 56.4066236,0.166253102 56.6619221,0.450492276 C56.911902,0.73473145 57.0342325,1.11550468 56.9916828,1.49091491 C56.5289541,5.59361242 53.4547338,13.3377892 45.0990244,13.3377892 L31.5469252,13.3377892 L31.5469252,65.6592492 C31.5469252,66.4047066 30.9565473,67 30.2172452,67 L30.2172452,67 Z" id="Fill-4" fill="#1A1A1A" mask="url(#mask-4)"></path>
                    </g>
                    <path d="M20.0065725,93.5931735 C19.1725725,93.5931735 18.5065725,92.9855786 18.5065725,92.2247164 L18.5065725,62.9616306 C18.5065725,62.2117161 19.1725725,61.5931735 20.0065725,61.5931735 C20.8345725,61.5931735 21.5065725,62.2117161 21.5065725,62.9616306 L21.5065725,92.2247164 C21.5065725,92.9855786 20.8345725,93.5931735 20.0065725,93.5931735" id="Fill-7" fill="#1A1A1A"></path>
                    <path d="M87.6571407,59.5931735 L39.6605498,59.5931735 C38.9210612,59.5931735 38.311118,58.9914116 38.311118,58.2378539 C38.311118,57.4897174 38.9210612,56.8825343 39.6605498,56.8825343 L86.3077089,56.8825343 L86.3077089,14.3038128 L33.3560043,14.3038128 C32.611118,14.3038128 32.0065725,13.6912083 32.0065725,12.9484931 C32.0065725,12.2003567 32.611118,11.5931735 33.3560043,11.5931735 L87.6571407,11.5931735 C88.4074248,11.5931735 89.0065725,12.2003567 89.0065725,12.9484931 L89.0065725,58.2378539 C89.0065725,58.9914116 88.4074248,59.5931735 87.6571407,59.5931735" id="Fill-9" fill="#1A1A1A"></path>
                </g>
                <rect id="Rectangle-Copy-6" fill="#EC5151" x="72.0065725" y="16.5931735" width="12" height="38"></rect>
            </g>
        </g>
    </g>
</svg>