<?xml version="1.0" encoding="UTF-8"?>
<svg width="50px" height="82px" viewBox="0 0 50 82" version="1.1" xmlns="http://www.w3.org/2000/svg" xmlns:xlink="http://www.w3.org/1999/xlink">
    <title>46676ADF-A254-4004-B94A-28F5DA9A3F8A</title>
    <defs>
        <polygon id="path-1" points="0 0 50 0 50 82 0 82"></polygon>
    </defs>
    <g id="Coding-Test" stroke="none" stroke-width="1" fill="none" fill-rule="evenodd">
        <g id="Landing-Page" transform="translate(-43.000000, -1134.000000)">
            <g id="Group-2" transform="translate(43.000000, 1134.000000)">
                <g id="Group-27-Copy-2">
                    <g id="Group-3">
                        <mask id="mask-2" fill="white">
                            <use xlink:href="#path-1"></use>
                        </mask>
                        <g id="Clip-2"></g>
                        <path d="M6.70020901,2.68086222 C4.49158568,2.68086222 2.6923657,4.47526699 2.6923657,6.67797943 L2.6923657,75.3166481 C2.6923657,77.524733 4.49158568,79.3191378 6.70020901,79.3191378 L43.2987136,79.3191378 C45.5073369,79.3191378 47.3065569,77.524733 47.3065569,75.3166481 L47.3065569,6.67797943 C47.3065569,4.47526699 45.5073369,2.68086222 43.2987136,2.68086222 L6.70020901,2.68086222 Z M43.2987136,82 L6.70020901,82 C3.0048051,82 -0.00107737723,79.0021621 -0.00107737723,75.3166481 L-0.00107737723,6.67797943 C-0.00107737723,2.99783791 3.0048051,-9.54342271e-15 6.70020901,-9.54342271e-15 L43.2987136,-9.54342271e-15 C46.9887306,-9.54342271e-15 50,2.99783791 50,6.67797943 L50,75.3166481 C50,79.0021621 46.9887306,82 43.2987136,82 L43.2987136,82 Z" id="Fill-1" fill="#1A1A1A" mask="url(#mask-2)"></path>
                    </g>
                    <path d="M27.7597449,77.5 L23.2402551,77.5 C22.5556343,77.5 22,76.828 22,76 C22,75.166 22.5556343,74.5 23.2402551,74.5 L27.7597449,74.5 C28.4493267,74.5 29,75.166 29,76 C29,76.828 28.4493267,77.5 27.7597449,77.5" id="Fill-10" fill="#1A1A1A"></path>
                </g>
                <rect id="Rectangle-Copy-6" fill="#EC5151" x="19" y="26" width="12" height="31"></rect>
            </g>
        </g>
    </g>
</svg>