<?xml version="1.0" encoding="UTF-8"?>
<svg width="78px" height="80px" viewBox="0 0 78 80" version="1.1" xmlns="http://www.w3.org/2000/svg" xmlns:xlink="http://www.w3.org/1999/xlink">
    <title>5C23479E-23C2-46DA-9175-D06C1C5AB96C</title>
    <defs>
        <polygon id="path-1" points="0 0 20 0 20 20 0 20"></polygon>
        <polygon id="path-3" points="-1.00322328e-14 -5.01475337e-15 20 -5.01475337e-15 20 20 -1.00322328e-14 20"></polygon>
        <polygon id="path-5" points="-1.00333273e-14 0 20 0 20 20 -1.00333273e-14 20"></polygon>
    </defs>
    <g id="Coding-Test" stroke="none" stroke-width="1" fill="none" fill-rule="evenodd">
        <g id="Landing-Page" transform="translate(-41.000000, -1522.000000)">
            <g id="Group-4" transform="translate(41.996190, 1522.627306)">
                <g id="Group-18-Copy" transform="translate(0.000000, -0.000000)">
                    <path d="M46.0240478,30.0893854 C41.5422964,30.0893854 37.2941392,32.779099 35.5340332,37.1858825 C34.4149534,39.9842715 34.4529804,43.048915 35.6426817,45.8201351 C36.8269506,48.5913553 39.0216507,50.7268249 41.8193501,51.8461805 C47.5994514,54.1555307 54.1726869,51.3408404 56.4869004,45.5593144 C58.790249,39.7832222 55.9708199,33.2029327 50.1907186,30.8935826 C48.8217473,30.3447723 47.4147489,30.0893854 46.0240478,30.0893854 L46.0240478,30.0893854 Z M45.9914533,55.372694 C44.2693742,55.372694 42.5092682,55.0466681 40.8143513,54.3674475 C37.343031,52.9818374 34.6159532,50.3247263 33.1491981,46.8905868 C31.6715782,43.4564473 31.6226864,39.647378 33.007955,36.180636 C35.876276,29.0080661 44.0303475,25.5087214 51.2011499,28.3723156 C58.3665198,31.2359098 61.8704346,39.3974249 59.0021137,46.5699947 C56.8182784,52.0363623 51.5488251,55.372694 45.9914533,55.372694 L45.9914533,55.372694 Z" id="Fill-1" fill="#1A1A1A"></path>
                    <g id="Group-5" transform="translate(-0.996190, 36.372694)">
                        <mask id="mask-2" fill="white">
                            <use xlink:href="#path-1"></use>
                        </mask>
                        <g id="Clip-4"></g>
                        <path d="M10.006006,2.82128829 C7.15909002,2.82128829 4.45903871,4.53294553 3.33495877,7.33486628 C1.87196026,11.0067382 3.66258006,15.1926723 7.33419795,16.661421 C9.11352047,17.3731993 11.0623023,17.3449541 12.8246789,16.5936326 C14.5927041,15.8366621 15.954027,14.4413508 16.6601074,12.6619051 C18.1287545,8.99003318 16.3324861,4.80409915 12.6608682,3.33535037 C11.7909772,2.98511027 10.892843,2.82128829 10.006006,2.82128829 M10.0003574,20 C8.74071004,20 7.49235995,19.7627406 6.28919901,19.2825727 C1.17152854,17.2376225 -1.33082027,11.4078196 0.708339821,6.284146 C2.76444584,1.1661214 8.59384532,-1.33075153 13.7058672,0.714198697 C18.8291863,2.75914892 21.3315351,8.58895178 19.2867263,13.7069764 C18.2925652,16.1869022 16.3946212,18.1358189 13.9374615,19.1865391 C12.6778141,19.7288464 11.3390858,20 10.0003574,20" id="Fill-3" fill="#1A1A1A" mask="url(#mask-2)"></path>
                    </g>
                    <g id="Group-8" transform="translate(57.003810, 59.372694)">
                        <mask id="mask-4" fill="white">
                            <use xlink:href="#path-3"></use>
                        </mask>
                        <g id="Clip-7"></g>
                        <path d="M10.0035985,2.82735536 C7.15718547,2.82735536 4.45761118,4.53812679 3.33372983,7.33859753 C1.87098978,11.0085693 3.66129324,15.192337 7.33226246,16.6603257 C9.11691827,17.3717356 11.0653558,17.3435051 12.827421,16.5925724 C14.5894862,15.8359936 15.9505687,14.4414044 16.6621719,12.6628796 C17.3737752,10.8843548 17.345537,8.93080065 16.5887526,7.17486033 C15.8319681,5.4132739 14.4369998,4.0525613 12.6636393,3.3411514 C11.7882543,2.99109256 10.8902788,2.82735536 10.0035985,2.82735536 M9.99795088,20.0028231 C8.7441737,20.0028231 7.49039652,19.7600403 6.28744814,19.2801209 C1.17068181,17.236229 -1.33122491,11.4094431 0.713222567,6.288421 C1.70156043,3.81542467 3.60481679,1.8675166 6.06154235,0.81734007 C8.50697261,-0.238482566 11.2291375,-0.272359229 13.7084536,0.721356194 C16.1877698,1.71507162 18.1305596,3.6121647 19.1866692,6.06257659 C20.2371312,8.51298848 20.2710171,11.2287676 19.2826792,13.7130561 C18.2886937,16.1860525 16.391085,18.1339605 13.9343594,19.1841371 C12.6749346,19.7261636 11.3364427,20.0028231 9.99795088,20.0028231" id="Fill-6" fill="#1A1A1A" mask="url(#mask-4)"></path>
                    </g>
                    <g id="Group-11" transform="translate(48.003810, -0.627306)">
                        <mask id="mask-6" fill="white">
                            <use xlink:href="#path-5"></use>
                        </mask>
                        <g id="Clip-10"></g>
                        <path d="M10.0122548,2.82291784 C7.16553121,2.82291784 4.46001413,4.5349757 3.34165842,7.33755227 C2.62997752,9.1174144 2.65257056,11.0667872 3.40943755,12.8296983 C4.16630455,14.5926093 5.56142505,15.9486948 7.34062731,16.6606396 C11.0232936,18.1353825 15.1973586,16.3385693 16.6659064,12.6601876 C18.1288061,8.98745621 16.3383073,4.80619279 12.6669376,3.33710024 C11.7971053,2.98677817 10.8990318,2.82291784 10.0122548,2.82291784 L10.0122548,2.82291784 Z M9.98966178,20 C8.75834085,20 7.50442688,19.7739858 6.295699,19.2880551 C3.8104641,18.2935925 1.861814,16.3950729 0.81123743,13.9428184 C-0.239339142,11.4849135 -0.267580448,8.77274268 0.715216991,6.28658605 C2.76553578,1.16736354 8.59454128,-1.3300938 13.7118659,0.70968471 C18.8291905,2.76076393 21.3313702,8.59193129 19.2866996,13.7111538 C17.7221313,17.6155498 13.9603894,20 9.98966178,20 L9.98966178,20 Z" id="Fill-9" fill="#1A1A1A" mask="url(#mask-6)"></path>
                    </g>
                    <path d="M17.3830984,47.0686074 C16.7090856,47.0686074 16.1179432,46.5286074 16.0184986,45.7786074 C15.9080047,44.9566074 16.4328508,44.2006074 17.1897341,44.0806074 L32.4268442,41.6926074 C33.1726781,41.5726074 33.8743144,42.1486074 33.990333,42.9586074 C34.0953023,43.7806074 33.5759809,44.5426074 32.8190976,44.6626074 L17.5819875,47.0506074 C17.5101664,47.0626074 17.4493948,47.0686074 17.3830984,47.0686074" id="Fill-12" fill="#1A1A1A"></path>
                    <path d="M50.3906758,31.372694 C50.2238544,31.372694 50.0459116,31.3411118 49.8735294,31.2726837 C49.1617581,31.0094984 48.8169939,30.2409976 49.106151,29.5672434 L54.3221002,17.2028017 C54.6056966,16.5290475 55.412,16.1974342 56.1293321,16.4658831 C56.8411034,16.7395957 57.1914284,17.5028329 56.9022713,18.176587 L51.6807613,30.5462924 C51.4638935,31.0568718 50.9467471,31.372694 50.3906758,31.372694" id="Fill-14" fill="#1A1A1A"></path>
                    <path d="M62.5450943,65.372694 C62.1124219,65.372694 61.6855964,65.2008941 61.3990971,64.8729125 L51.3189988,53.4820591 C50.8161632,52.9093928 50.9272548,52.0972478 51.5645696,51.6495269 C52.1901906,51.207012 53.1140047,51.3059271 53.6168402,51.8681813 L63.6910916,63.2642408 C64.1880802,63.8317011 64.0828355,64.643846 63.4455207,65.0915669 C63.1765622,65.278985 62.8608283,65.372694 62.5450943,65.372694" id="Fill-16" fill="#1A1A1A"></path>
                </g>
                <circle id="Oval-Copy-2" fill="#EC5151" cx="46.0038096" cy="41.372694" r="7"></circle>
            </g>
        </g>
    </g>
</svg>