<?xml version="1.0" encoding="UTF-8"?>
<svg width="75px" height="77px" viewBox="0 0 75 77" version="1.1" xmlns="http://www.w3.org/2000/svg" xmlns:xlink="http://www.w3.org/1999/xlink">
    <title>76933E5F-9369-4247-9B64-DFEABCB170EA</title>
    <defs>
        <polygon id="path-1" points="0 0 57 0 57 32 0 32"></polygon>
        <polygon id="path-3" points="0 -9.61671131e-15 32 -9.61671131e-15 32 32 0 32"></polygon>
        <polygon id="path-5" points="2.38162086e-15 0 43 0 43 25 2.38162086e-15 25"></polygon>
    </defs>
    <g id="Coding-Test" stroke="none" stroke-width="1" fill="none" fill-rule="evenodd">
        <g id="Landing-Page" transform="translate(-39.000000, -1952.000000)">
            <g id="Group-14-Copy" transform="translate(39.000000, 1952.000000)">
                <g id="Group-3" transform="translate(0.000000, 17.000000)">
                    <mask id="mask-2" fill="white">
                        <use xlink:href="#path-1"></use>
                    </mask>
                    <g id="Clip-2"></g>
                    <path d="M28.4959442,22.8856661 C28.8095916,22.8856661 29.1124235,22.9935919 29.366586,23.2040472 C29.442294,23.2580101 36.7481144,29.3072513 44.3838053,29.3072513 C52.571083,29.3072513 54.2961434,23.9271501 54.2961434,19.4212479 L54.2961434,12.5787521 C54.2961434,7.12849916 49.8455956,2.69814503 44.3838053,2.69814503 L12.6080831,2.69814503 C7.14629287,2.69814503 2.7011527,7.12849916 2.7011527,12.5787521 L2.7011527,19.4212479 C2.7011527,26.2583474 5.7565106,29.3072513 12.6080831,29.3072513 C20.789953,29.3072513 27.5171481,23.2957841 27.5874484,23.2310287 C27.8470186,22.9989882 28.1714814,22.8856661 28.4959442,22.8856661 M44.3838053,32 C37.3429629,32 30.8537071,27.7045531 28.5283905,25.9669477 C26.295005,27.7261383 20.1085812,32 12.6080831,32 C4.24235093,32 -0.00270385655,27.7693086 -0.00270385655,19.4212479 L-0.00270385655,12.5787521 C-0.00270385655,5.64451939 5.65376405,0 12.6080831,0 L44.3838053,0 C51.3381244,0 57,5.64451939 57,12.5787521 L57,19.4212479 C57,27.4185497 52.3980361,32 44.3838053,32" id="Fill-1" fill="#1A1A1A" mask="url(#mask-2)"></path>
                </g>
                <path d="M63.7110588,31 C62.9915294,31 62.4169412,30.4203717 62.4169412,29.7061868 C62.4169412,24.8621501 60.5327059,20.3182781 57.1110588,16.8922606 C53.6842353,13.4714185 49.1341176,11.5876264 44.2889412,11.5876264 C43.5745882,11.5876264 43,11.0079981 43,10.2938132 C43,9.57962832 43.5745882,9 44.2889412,9 C49.8225882,9 55.0197647,11.1529052 58.9331765,15.0653964 C62.8465882,18.9778876 65,24.1790167 65,29.7061868 C65,30.4203717 64.4254118,31 63.7110588,31" id="Fill-4" fill="#1A1A1A"></path>
                <g id="Group-8" transform="translate(43.000000, 0.000000)">
                    <mask id="mask-4" fill="white">
                        <use xlink:href="#path-3"></use>
                    </mask>
                    <g id="Clip-7"></g>
                    <path d="M30.6517766,32 C29.899154,32 29.2981387,31.3936626 29.2981387,30.6465682 C29.2981387,23.1810384 26.3905245,16.164848 21.1113367,10.8918777 C15.8321489,5.61349372 8.81489002,2.70632222 1.34822335,2.70632222 C0.601015228,2.70632222 0,2.09998477 0,1.35289042 C0,0.605796072 0.601015228,-0.000541372718 1.34822335,-0.000541372718 C9.54043993,-0.000541372718 17.2291032,3.18814394 23.028088,8.9754183 C28.8108291,14.7626927 32,22.4610127 32,30.6465682 C32,31.3936626 31.3989848,32 30.6517766,32" id="Fill-6" fill="#1A1A1A" mask="url(#mask-4)"></path>
                </g>
                <path d="M48.784,28.5 C48.784,30.867 46.867,32.793 44.5,32.793 C42.133,32.793 40.216,30.867 40.216,28.5 C40.216,26.133 42.133,24.207 44.5,24.207 C46.867,24.207 48.784,26.133 48.784,28.5" id="Fill-9" fill="#EC5151"></path>
                <g id="Group-13" transform="translate(7.000000, 52.000000)">
                    <mask id="mask-6" fill="white">
                        <use xlink:href="#path-5"></use>
                    </mask>
                    <g id="Clip-12"></g>
                    <path d="M1.34073335,0 C2.08618109,0 2.6814667,0.594631329 2.6814667,1.32730207 L2.6814667,9.25395005 C2.6814667,16.4744733 8.61287104,22.3464577 15.9064605,22.3464577 L27.0935395,22.3464577 C34.381766,22.3464577 40.3185333,16.4744733 40.3185333,9.25395005 L40.3185333,2.51125552 C40.3185333,1.77327557 40.9138189,1.18395345 41.6592667,1.18395345 C42.3939885,1.18395345 43,1.77327557 43,2.51125552 L43,9.25395005 C43,17.9398148 35.8619356,25.0010618 27.0935395,25.0010618 L15.9064605,25.0010618 C7.13270142,25.0010618 2.38162086e-15,17.9398148 2.38162086e-15,9.25395005 L2.38162086e-15,1.32730207 C2.38162086e-15,0.594631329 0.600648541,0 1.34073335,0" id="Fill-11" fill="#1A1A1A" mask="url(#mask-6)"></path>
                </g>
            </g>
        </g>
    </g>
</svg>