<?xml version="1.0" encoding="UTF-8"?>
<svg width="84px" height="80px" viewBox="0 0 84 80" version="1.1" xmlns="http://www.w3.org/2000/svg" xmlns:xlink="http://www.w3.org/1999/xlink">
    <title>5937034E-D48C-4AF0-90EB-EE2452192F0E</title>
    <defs>
        <polygon id="path-1" points="0.0351790949 -0.627305962 82.0351791 -0.627305962 82.0351791 79.372694 0.0351790949 79.372694"></polygon>
    </defs>
    <g id="Coding-Test" stroke="none" stroke-width="1" fill="none" fill-rule="evenodd">
        <g id="Landing-Page" transform="translate(-35.000000, -2405.000000)">
            <g id="Group-7" transform="translate(35.964821, 2405.627306)">
                <g id="Group-3-Copy" transform="translate(-0.000000, 0.000000)">
                    <mask id="mask-2" fill="white">
                        <use xlink:href="#path-1"></use>
                    </mask>
                    <g id="Clip-2"></g>
                    <path d="M5.47734488,31.6177036 L26.6675425,47.3901947 C27.1374864,47.7347394 27.3350764,48.3527323 27.1535072,48.9105666 L19.0576555,74.4287509 L40.2531934,58.6562598 C40.7231373,58.3117151 41.3532893,58.3117151 41.8232332,58.6562598 L63.0080906,74.4287509 L54.9175791,48.9105666 C54.7413502,48.3527323 54.9336,47.7347394 55.4035439,47.3901947 L76.5937415,31.6177036 L50.3997094,31.6177036 C49.8229601,31.6177036 49.310294,31.2348762 49.134065,30.6715729 L41.032873,5.15885756 L32.9423616,30.6715729 C32.7607924,31.2348762 32.2534666,31.6177036 31.671377,31.6177036 L5.47734488,31.6177036 Z M16.5210265,79.3672251 C16.2486727,79.3672251 15.9709785,79.2851906 15.7360066,79.1101838 C15.271403,78.7601701 15.0738129,78.1476462 15.2553821,77.578874 L24.3124827,49.0144769 L0.585656112,31.3551934 C0.115712214,31.0106486 -0.0765375633,30.3871868 0.0996913988,29.8293525 C0.275920361,29.2660492 0.793926704,28.8832218 1.36533576,28.8832218 L30.7047878,28.8832218 L39.7672287,0.313355783 C39.9434576,-0.244478508 40.4561237,-0.627305962 41.032873,-0.627305962 C41.6149626,-0.627305962 42.1222884,-0.244478508 42.3038577,0.313355783 L51.3716388,28.8832218 L80.7004103,28.8832218 C81.2771597,28.8832218 81.7898257,29.2660492 81.971395,29.8293525 C82.1476239,30.3871868 81.9500339,31.0106486 81.4854302,31.3551934 L57.7532634,49.0144769 L66.8157042,77.578874 C66.9972735,78.1476462 66.7996834,78.7601701 66.3350798,79.1101838 C65.8651359,79.4601975 65.2349838,79.4601975 64.7703802,79.1101838 L41.032873,61.4509002 L17.3060464,79.1101838 C17.0710745,79.2851906 16.7933804,79.3672251 16.5210265,79.3672251 L16.5210265,79.3672251 Z" id="Fill-1" fill="#1A1A1A" mask="url(#mask-2)"></path>
                </g>
                <circle id="Oval-Copy-2" fill="#EC5151" cx="40.0351791" cy="43.372694" r="9"></circle>
            </g>
        </g>
    </g>
</svg>