<?xml version="1.0" encoding="UTF-8"?>
<svg width="74px" height="64px" viewBox="0 0 74 64" version="1.1" xmlns="http://www.w3.org/2000/svg" xmlns:xlink="http://www.w3.org/1999/xlink">
    <title>0DD01481-30FB-458A-AA45-F122B36CFE44</title>
    <defs>
        <polygon id="path-1" points="0 0 74 0 74 50 0 50"></polygon>
        <polygon id="path-3" points="-2.49904307e-15 0 27 0 27 56 -2.49904307e-15 56"></polygon>
        <polygon id="path-5" points="4.23466971 0.325932621 27 0 27 56 0 56"></polygon>
    </defs>
    <g id="Coding-Test" stroke="none" stroke-width="1" fill="none" fill-rule="evenodd">
        <g id="Landing-Page" transform="translate(-42.000000, -2840.000000)">
            <g id="Group-10" transform="translate(42.000000, 2840.000000)">
                <g id="Group-10-Copy">
                    <g id="Group-3" transform="translate(0.000000, 14.000000)">
                        <mask id="mask-2" fill="white">
                            <use xlink:href="#path-1"></use>
                        </mask>
                        <g id="Clip-2"></g>
                        <path d="M44.2314252,50 L29.7674942,50 C29.4108937,50 29.0596963,49.858895 28.8111565,49.5983936 L25.5099007,46.233583 L1.34751752,46.233583 C0.601898364,46.233583 -0.00324182243,45.6257462 -0.00324182243,44.8768045 L-0.00324182243,1.35677847 C-0.00324182243,0.607836752 0.601898364,0 1.34751752,0 C2.09853972,0 2.69827687,0.607836752 2.69827687,1.35677847 L2.69827687,43.5254532 L26.0718166,43.5254532 C26.4338201,43.5254532 26.7796145,43.6665581 27.0335572,43.9270596 L30.3348131,47.2918702 L43.6695093,47.2918702 L46.9707652,43.9270596 C47.2247079,43.6665581 47.5705023,43.5254532 47.9325058,43.5254532 L71.3006425,43.5254532 L71.3006425,1.35677847 C71.3006425,0.607836752 71.9057827,0 72.6514019,0 C73.397021,0 74.0021612,0.607836752 74.0021612,1.35677847 L74.0021612,44.8768045 C74.0021612,45.6257462 73.397021,46.233583 72.6514019,46.233583 L48.4998248,46.233583 L45.1931659,49.5983936 C44.9392231,49.858895 44.5934287,50 44.2314252,50" id="Fill-1" fill="#1A1A1A" mask="url(#mask-2)"></path>
                    </g>
                    <g id="Group-6" transform="translate(13.000000, 0.000000)">
                        <mask id="mask-4" fill="white">
                            <use xlink:href="#path-3"></use>
                        </mask>
                        <g id="Clip-5"></g>
                        <path d="M2.81367236,42.7567206 C6.11129637,43.6781785 16.3586911,46.5604133 19.5212589,47.7068784 C21.3388912,48.365828 22.9483118,49.630154 24.191955,50.8569789 L24.191955,13.7468669 C24.191955,9.21993686 11.7217591,4.93408591 2.81367236,2.99473835 L2.81367236,42.7567206 Z M25.5987912,56 C25.1204669,56 24.6702793,55.7696355 24.4057941,55.3731943 C24.3832847,55.3356931 21.7215506,51.371281 18.5195915,50.2141012 C14.9124635,48.9015594 1.15360567,45.087152 1.01292205,45.0496508 C0.410796165,44.8782168 -2.49904307e-15,44.3585574 -2.49904307e-15,43.7585382 L-2.49904307e-15,1.33932842 C-2.49904307e-15,0.937529896 0.191329721,0.557160624 0.517715715,0.300009567 C0.844101709,0.0482158232 1.27740725,-0.0535731369 1.68820342,0.0267865684 C4.27678199,0.530374055 27,5.18587965 27,13.7468669 L27,54.6606716 C27,55.2553334 26.5892038,55.7803501 25.9870779,55.9464269 C25.857649,55.9839281 25.7282201,56 25.5987912,56 L25.5987912,56 Z" id="Fill-4" fill="#1A1A1A" mask="url(#mask-4)"></path>
                    </g>
                    <g id="Group-9" transform="translate(41.000000, 2.000000)">
                        <mask id="mask-6" fill="white">
                            <use xlink:href="#path-5"></use>
                        </mask>
                        <g id="Clip-8"></g>
                        <path d="M18.1863276,5.00060269 C9.28386828,6.93457443 -3.19195498,11.2203844 -3.19195498,15.7472711 L-3.19195498,52.8570281 C-1.9483118,51.630215 -0.338891205,50.365901 1.47874114,49.7069577 C4.64130888,48.5605036 14.894331,45.6782964 18.1863276,44.7568473 L18.1863276,5.00060269 Z M-4.59316382,58 C-4.72822009,58 -4.85764902,57.9839282 -4.98707795,57.9464274 C-5.58920383,57.7803522 -6,57.2553405 -6,56.6606844 L-6,15.7472711 C-6,7.18636577 16.723218,2.53090471 19.3117966,2.02732204 C19.7282201,1.9469631 20.1558983,2.04339383 20.4822843,2.30054242 C20.8086703,2.55769102 21,2.93805665 21,3.33449407 L21,45.7586553 C21,46.3586687 20.5892038,46.8783232 19.9870779,47.0497556 C19.8463943,47.0818991 6.08753647,50.9016273 2.4804085,52.2141566 C-0.721550646,53.3713253 -3.3832847,57.3356995 -3.40579408,57.3732003 C-3.67027928,57.7696377 -4.12046686,58 -4.59316382,58 L-4.59316382,58 Z" id="Fill-7" fill="#1A1A1A" mask="url(#mask-6)"></path>
                    </g>
                </g>
                <rect id="Rectangle-Copy-6" fill="#EC5151" x="43" y="0" width="11" height="31"></rect>
            </g>
        </g>
    </g>
</svg>