<?xml version="1.0" encoding="UTF-8"?>
<svg width="36px" height="69px" viewBox="0 0 36 69" version="1.1" xmlns="http://www.w3.org/2000/svg" xmlns:xlink="http://www.w3.org/1999/xlink">
    <title>56556701-31BB-4639-9F95-C7D6457B0925</title>
    <g id="Coding-Test" stroke="none" stroke-width="1" fill="none" fill-rule="evenodd">
        <g id="Landing-Page" transform="translate(-48.000000, -3321.000000)">
            <g id="Group-14" transform="translate(48.000000, 3321.000000)">
                <g id="Group-10-Copy" fill="#1A1A1A">
                    <path d="M2.5,69 C1.81,69 1.25,68.4915693 1.25,67.8594663 L1.25,1.14053372 C1.25,0.508430696 1.81,0 2.5,0 C3.19,0 3.75,0.508430696 3.75,1.14053372 L3.75,67.8594663 C3.75,68.4915693 3.19,69 2.5,69" id="Fill-1"></path>
                    <path d="M2.16157227,39 C1.76122769,39 1.37019344,38.7960524 1.15605564,38.4334788 C0.83484894,37.8941507 1.02571089,37.2052609 1.57967607,36.888009 L32.5179331,19.4980748 L1.57967607,2.11267282 C1.02571089,1.79995312 0.83484894,1.11106337 1.15605564,0.571735202 C1.47726234,0.0233426985 2.18484812,-0.162476249 2.74346847,0.154775613 L35.422759,18.5191262 C35.781207,18.7230739 36,19.0947118 36,19.4980748 C36,19.9059701 35.781207,20.277608 35.422759,20.4815556 L2.74346847,38.8504384 C2.55726169,38.9501461 2.35708939,39 2.16157227,39" id="Fill-3"></path>
                </g>
                <polygon id="Rectangle-Copy-6" fill="#EC5151" points="7.42993402 10.4101436 23.8342864 19.3942902 7.87260466 28.0342725"></polygon>
            </g>
        </g>
    </g>
</svg>