<?xml version="1.0" encoding="UTF-8"?>
<svg width="44px" height="80px" viewBox="0 0 44 80" version="1.1" xmlns="http://www.w3.org/2000/svg" xmlns:xlink="http://www.w3.org/1999/xlink">
    <title>CF147412-6DEF-4990-8BA0-CFEAF1FC023A</title>
    <defs>
        <polygon id="path-1" points="0 0 43 0 43 59 0 59"></polygon>
        <polygon id="path-3" points="-2.4029563e-15 0 21 0 21 22 -2.4029563e-15 22"></polygon>
    </defs>
    <g id="Coding-Test" stroke="none" stroke-width="1" fill="none" fill-rule="evenodd">
        <g id="Landing-Page" transform="translate(-51.000000, -3753.000000)">
            <g id="Group-15" transform="translate(51.324593, 3753.813653)">
                <g id="Group-9-Copy" transform="translate(0.000000, -0.000000)">
                    <g id="Group-3" transform="translate(-0.324593, 20.186347)">
                        <mask id="mask-2" fill="white">
                            <use xlink:href="#path-1"></use>
                        </mask>
                        <g id="Clip-2"></g>
                        <path d="M14.9370025,2.69902824 C8.20014174,2.69902824 2.7148787,8.15117345 2.7148787,14.8419509 L2.7148787,44.1580491 C2.7148787,50.8542354 8.20014174,56.3009718 14.9370025,56.3009718 L28.0624533,56.3009718 C34.7993141,56.3009718 40.2845771,50.8542354 40.2845771,44.1580491 L40.2845771,14.8419509 C40.2845771,8.15117345 34.7993141,2.69902824 28.0624533,2.69902824 L14.9370025,2.69902824 Z M28.0624533,59 L14.9370025,59 C6.69822448,59 -0.00054417292,52.3416758 -0.00054417292,44.1580491 L-0.00054417292,14.8419509 C-0.00054417292,6.65832417 6.69822448,0 14.9370025,0 L28.0624533,0 C36.2957896,0 43,6.65832417 43,14.8419509 L43,44.1580491 C43,52.3416758 36.2957896,59 28.0624533,59 L28.0624533,59 Z" id="Fill-1" fill="#1A1A1A" mask="url(#mask-2)"></path>
                    </g>
                    <path d="M21.6754069,42.186347 C20.8474069,42.186347 20.1754069,41.5438715 20.1754069,40.7451182 L20.1754069,30.6333639 C20.1754069,29.8288225 20.8474069,29.186347 21.6754069,29.186347 C22.5034069,29.186347 23.1754069,29.8288225 23.1754069,30.6333639 L23.1754069,40.7451182 C23.1754069,41.5438715 22.5034069,42.186347 21.6754069,42.186347" id="Fill-4" fill="#1A1A1A"></path>
                    <g id="Group-8" transform="translate(1.675407, 0.186347)">
                        <mask id="mask-4" fill="white">
                            <use xlink:href="#path-3"></use>
                        </mask>
                        <g id="Clip-7"></g>
                        <path d="M19.6472559,22 C18.9005411,22 18.2945117,21.3915599 18.2945117,20.6418747 L18.2945117,8.13082451 C18.2945117,5.13751636 15.8758052,2.70918833 12.8943571,2.70918833 L1.35274414,2.70918833 C0.606029374,2.70918833 -2.4029563e-15,2.1061807 -2.4029563e-15,1.35106304 C-2.4029563e-15,0.606810381 0.606029374,-0.00162975035 1.35274414,-0.00162975035 L12.8943571,-0.00162975035 C17.3638238,-0.00162975035 21,3.64901104 21,8.13082451 L21,20.6418747 C21,21.3915599 20.3939706,22 19.6472559,22" id="Fill-6" fill="#1A1A1A" mask="url(#mask-4)"></path>
                    </g>
                </g>
                <rect id="Rectangle-Copy-6" fill="#EC5151" x="15.6754069" y="28.186347" width="11" height="15"></rect>
            </g>
        </g>
    </g>
</svg>